<?xml version="1.0" encoding="UTF-8" standalone="no"?>
<svg
   xmlns:dc="http://purl.org/dc/elements/1.1/"
   xmlns:cc="http://creativecommons.org/ns#"
   xmlns:rdf="http://www.w3.org/1999/02/22-rdf-syntax-ns#"
   xmlns:svg="http://www.w3.org/2000/svg"
   xmlns="http://www.w3.org/2000/svg"
   xmlns:sodipodi="http://sodipodi.sourceforge.net/DTD/sodipodi-0.dtd"
   xmlns:inkscape="http://www.inkscape.org/namespaces/inkscape"
   viewBox="0 0 512 512"
   version="1.1"
   id="svg4"
   sodipodi:docname="Cup icon positive.svg"
   inkscape:version="1.0.2-2 (e86c870879, 2021-01-15)">
  <metadata
     id="metadata10">
    <rdf:RDF>
      <cc:Work
         rdf:about="">
        <dc:format>image/svg+xml</dc:format>
        <dc:type
           rdf:resource="http://purl.org/dc/dcmitype/StillImage" />
        <dc:title></dc:title>
      </cc:Work>
    </rdf:RDF>
  </metadata>
  <defs
     id="defs8" />
  <sodipodi:namedview
     pagecolor="#ffffff"
     bordercolor="#666666"
     borderopacity="1"
     objecttolerance="10"
     gridtolerance="10"
     guidetolerance="10"
     inkscape:pageopacity="0"
     inkscape:pageshadow="2"
     inkscape:window-width="1110"
     inkscape:window-height="874"
     id="namedview6"
     showgrid="false"
     inkscape:zoom="1.6601562"
     inkscape:cx="256"
     inkscape:cy="256"
     inkscape:window-x="1809"
     inkscape:window-y="94"
     inkscape:window-maximized="0"
     inkscape:current-layer="svg4" />
  <path
     d="M369.7 404H110.1c-7.6 0-14.1 5.8-14.4 13.4-.4 8 6 14.6 14 14.6h259.6c7.6 0 14.1-5.8 14.4-13.4.3-8-6.1-14.6-14-14.6zM399.2 118.5c.1-10.8-4.2-20.9-12.2-28.4-7.2-6.6-16.7-10.1-26.5-10.1H86.8c-9.9 0-19.7 3.6-26.9 10.4-8.1 7.7-12.4 18.2-11.9 29.3C50.4 172 58.3 218 71.8 256.3c11 31.6 25.8 58.1 43.9 78.9 31.8 36.6 68.8 48.8 77.9 48.8h60.1c5.5 0 25-7.2 44.2-19.5 22.4-14.4 42.4-36.7 58.1-64.6 2 .1 4 .2 5.9.2 27.2 0 52.8-9.7 72.1-27.4 19.4-17.8 30.1-41.4 30.1-66.6-.1-38.9-25.9-73.5-64.9-87.6zm-29.7 153.1c14.2-34.5 23.6-76 27.8-123.4 0 0 0-.1.1 0 10.3 5 19.1 12.2 25.8 20.9 8.4 10.9 12.8 23.7 12.8 37 0 34-29.2 62.1-66.5 65.5z"
     id="path2" />
  <path
     style="fill:#afe9dd;stroke-width:0.602353"
     d="m 190.41181,383.33519 c -8.27711,-1.41242 -24.15793,-8.2338 -35.44378,-15.22436 -20.08041,-12.43802 -38.3092,-30.07755 -52.69411,-50.99075 C 71.653543,272.60327 53.609099,208.75259 48.742324,127.69731 47.929976,114.16779 48.585568,109.04834 52.043621,101.91779 57.080098,91.532508 65.748037,84.582219 77.348119,81.627664 c 4.710052,-1.199656 6.382021,-1.213427 146.070591,-1.203087 157.02225,0.01162 145.54805,-0.297008 154.55776,4.157256 11.5577,5.713956 19.6787,17.506417 20.61912,29.940917 l 0.33315,4.40499 2.1217,0.70023 c 7.2894,2.40572 18.36209,8.66271 26.34655,14.88799 18.48147,14.40953 30.84535,34.35254 34.98433,56.42992 1.50446,8.02483 1.509,23.04589 0.009,30.64411 -3.62055,18.34288 -12.14641,34.27994 -25.45732,47.58638 -18.99973,18.99334 -43.29486,29.35767 -71.04938,30.30972 l -10.28553,0.35282 -1.72787,3.07819 c -2.90703,5.17886 -13.21728,20.26476 -17.36831,25.41321 -13.39417,16.61255 -27.76091,29.36173 -43.74707,38.82154 -9.47275,5.60551 -21.65594,11.42646 -29.84946,14.26165 l -6.60448,2.28532 -31.32236,0.095 c -17.22729,0.0523 -32.78245,-0.15413 -34.56701,-0.45865 z M 379.18118,270.35123 c 26.09285,-5.08325 47.77213,-24.0906 54.84216,-48.08299 2.27748,-7.72871 2.70909,-19.84127 1.00061,-28.08087 -3.11496,-15.02272 -12.00271,-28.74697 -24.91946,-38.48003 -4.62247,-3.48314 -12.40215,-8.18029 -12.83324,-7.74836 -0.12067,0.12091 -0.79375,5.50549 -1.49573,11.96573 -4.12938,38.00254 -12.27422,73.86217 -23.58151,103.8234 -1.62341,4.30159 -2.95166,7.93336 -2.95166,8.0706 0,0.3035 3.50389,-0.21386 9.93883,-1.46748 z"
     id="path14" />
  <path
     style="fill:#afe9dd;stroke-width:0.602353"
     d="m 103.79119,430.11846 c -10.172893,-4.73643 -10.246102,-19.00684 -0.12338,-24.05121 l 3.1852,-1.58725 h 132.93294 132.93296 l 3.22084,1.68259 c 4.68751,2.44879 6.75389,5.64813 7.05166,10.918 0.17022,3.01257 -0.042,4.69444 -0.79201,6.27483 -1.40622,2.9634 -5.72326,6.80053 -8.52692,7.57902 -1.61733,0.44909 -42.44218,0.64396 -134.53836,0.6422 l -132.21647,-0.003 z"
     id="path16" />
</svg>
